<?xml version="1.0" encoding="UTF-8"?>
<svg id="_Слой_1" data-name="Слой_1" xmlns="http://www.w3.org/2000/svg" version="1.1" viewBox="0 0 24 24">
  <!-- Generator: Adobe Illustrator 29.7.1, SVG Export Plug-In . SVG Version: 2.1.1 Build 8)  -->
  <defs>
    <style>
      .st0 {
        fill: none;
      }

      .st1 {
        fill: #88d723;
      }
    </style>
  </defs>
  <rect class="st0" y="0" width="24" height="24"/>
  <g>
    <path class="st1" d="M21.96,4.64c-.19-1.37-1.31-2.48-2.7-2.61H4.62c-1.39.16-2.48,1.26-2.65,2.65v16.47c0,.17.14.45.25.57.34.37,1,.42,1.39.08l3.79-3.76h11.77c1.45-.12,2.65-1.25,2.79-2.71V4.64ZM19.97,14.81c.05.74-.35,1.1-.92,1.2l-12.31.04c-.15.05-.35.15-.43.21l-2.37,2.35v-3.79h0V5h0v-.07c0-.43.58-.93,1.01-.91h13.94c.46-.05,1.1.46,1.1.91v9.89Z"/>
    <path class="st1" d="M6.2,7.41h7.02c.55,0,1-.45,1-1s-.45-1-1-1h-7.02c-.55,0-1,.45-1,1s.45,1,1,1Z"/>
    <path class="st1" d="M15.08,8.96H6.2c-.55,0-1,.45-1,1s.45,1,1,1h8.87c.55,0,1-.45,1-1s-.45-1-1-1Z"/>
    <path class="st1" d="M11.9,12.51h-5.69c-.55,0-1,.45-1,1s.45,1,1,1h5.69c.55,0,1-.45,1-1s-.45-1-1-1Z"/>
  </g>
</svg>