<?xml version="1.0" encoding="UTF-8"?>
<svg id="_Слой_1" data-name="Слой_1" xmlns="http://www.w3.org/2000/svg" version="1.1" viewBox="0 0 24 24">
  <!-- Generator: Adobe Illustrator 29.7.1, SVG Export Plug-In . SVG Version: 2.1.1 Build 8)  -->
  <defs>
    <style>
      .st0 {
        fill: none;
      }

      .st1 {
        fill: #88d723;
      }
    </style>
  </defs>
  <rect class="st0" x="0" y="0" width="24" height="24"/>
  <path class="st1" d="M16.24,11.06c.17.03.33.14.46.25l3.31,3.31c.2,1.25-.73,1.58-1.8,1.38l-3.75-3.8c.58-.48.92-1.29,1.79-1.14M3.98,18.6v-5.98l3.26-3.26c.43-.4,1.02-.45,1.45-.05l6.69,6.71H6.91c-.12,0-.45.15-.56.23l-2.37,2.35ZM3.98,9.78v-4.86c0-.43.58-.93,1.01-.91h13.94c.46-.05,1.1.45,1.1.91v6.83c-.08.02-.09-.03-.14-.07-1.45-1.11-1.97-2.83-4.24-2.6-1.21.12-1.82.96-2.67,1.68l-3.01-3c-.67-.56-1.42-.78-2.3-.71-1.6.13-2.54,1.8-3.68,2.72M2.26,21.73c.34.37,1,.42,1.39.08l3.79-3.76h11.77c1.45-.12,2.65-1.25,2.79-2.71V4.64c-.19-1.37-1.31-2.48-2.7-2.61H4.66c-1.39.16-2.48,1.26-2.65,2.65v16.47c0,.17.14.45.25.57"/>
</svg>
