<svg xmlns="http://www.w3.org/2000/svg" width="512" height="512" viewBox="0 0 512 512" version="1.1">
	<path d="M 235.065 51.069 C 174.793 55.775, 117.173 89.824, 83.721 140.500 C 66.781 166.162, 54.289 201.499, 51.020 233 C 48.208 260.107, 51.742 293.906, 59.202 311.247 C 60.326 313.861, 61.593 316, 62.016 316 C 63.668 316, 63.856 312.595, 62.967 298.811 C 61.718 279.465, 61.766 252.045, 63.070 240.211 C 67.719 198.002, 85.657 156.305, 112.208 125.983 C 140.696 93.449, 186.057 69.383, 232 62.427 C 244.696 60.505, 279.708 60.207, 291.500 61.920 C 303.150 63.613, 303.244 63.615, 303.730 62.236 C 304.305 60.606, 298.952 58.383, 287.380 55.446 C 271.046 51.300, 252.248 49.727, 235.065 51.069 M 234.500 78.612 C 161.574 91.674, 102.757 146.053, 82.117 219.500 C 77.088 237.398, 74.397 259.891, 77.087 261.554 C 79.067 262.777, 80.140 260.348, 82.469 249.368 C 85.049 237.200, 88.446 228.097, 93.127 220.802 C 95.746 216.721, 96.717 215.945, 98.888 216.197 C 102.301 216.593, 102.250 219.456, 98.613 231.500 C 93.411 248.730, 91.705 262.404, 92.313 282 C 92.690 294.145, 93.490 302.456, 94.930 309.159 C 99.396 329.959, 109.307 352.689, 121.322 369.686 C 129.224 380.865, 144.135 395.776, 155.314 403.678 C 173.159 416.292, 197.625 426.656, 220.303 431.207 C 235.548 434.266, 269.191 434.490, 284.500 431.635 C 304.862 427.836, 331.582 417.274, 347.537 406.715 C 387.822 380.057, 417.334 336.432, 426.926 289.361 C 432.174 263.609, 431.822 230.143, 426.034 204.719 C 419.923 177.873, 401.382 146.037, 379.866 125.442 C 353.115 99.838, 320.827 84.334, 282 78.451 C 270.026 76.637, 245.057 76.722, 234.500 78.612 M 276.500 111.567 C 275.400 111.816, 272.025 112.495, 269 113.076 C 261.939 114.432, 248.300 118.803, 244.750 120.847 C 238.905 124.214, 242.639 127.996, 251.815 128.004 C 258.370 128.010, 273.349 130.555, 281.326 133.019 C 312.694 142.708, 340.751 164.053, 360.202 193.027 C 373.337 212.592, 387.100 243.392, 393.942 268.533 C 396.925 279.493, 397.966 281.912, 400.220 283.118 C 407.176 286.841, 413.447 260.902, 411.005 238.510 C 407.134 203.018, 391.099 168.145, 368 144.982 C 357.023 133.975, 346.790 126.663, 333.734 120.497 C 319.280 113.670, 311.065 111.821, 293.500 111.440 C 285.250 111.262, 277.600 111.319, 276.500 111.567 M 236.500 139.137 C 190.788 144.912, 157.280 176.988, 144.714 227 C 141.765 238.740, 141.561 268.434, 144.347 280.500 C 152.428 315.494, 177.291 346.985, 209.500 363.022 C 238.591 377.507, 274.185 377.458, 304.724 362.891 C 335.254 348.329, 360.608 313.826, 367.104 278 C 369.156 266.681, 368.701 245.491, 366.163 234.217 C 362.319 217.136, 352.636 196.667, 341.906 182.940 C 335.700 175, 324.938 164.899, 316.394 158.992 C 292.282 142.323, 264.983 135.539, 236.500 139.137 M 281.631 146.855 C 280.707 147.876, 280.211 149.385, 280.527 150.210 C 280.843 151.034, 285.013 154.362, 289.792 157.604 C 300.017 164.542, 312.970 177.051, 318.676 185.500 C 328.118 199.479, 335.623 218.642, 336.560 231.164 C 337.207 239.806, 335.839 243.500, 331.990 243.500 C 329.767 243.500, 329.204 242.508, 325.940 232.851 C 321.206 218.843, 315.151 208.433, 306.166 198.858 C 287.085 178.523, 262.215 170.248, 236.208 175.580 C 195.261 183.975, 167.182 225.203, 172.940 268.475 C 181.380 331.895, 245.522 365.783, 300.743 335.997 C 325.422 322.686, 345.844 296.049, 351.181 270.214 C 354.022 256.461, 353.360 234.724, 349.675 220.723 C 343.509 197.296, 328.456 173.932, 310.753 160.310 C 303.411 154.660, 287.134 145, 284.956 145 C 284.051 145, 282.554 145.835, 281.631 146.855 M 237 199.888 C 227.118 203.086, 220.693 207.083, 212.885 214.888 C 200.593 227.174, 194.986 240.880, 195.015 258.564 C 195.045 277.032, 200.712 290.921, 213.394 303.611 C 226.545 316.770, 241.950 322.921, 258.798 321.739 C 281.159 320.171, 302.339 303.532, 310.109 281.432 C 322.175 247.110, 302.775 208.476, 268.955 199.475 C 261.184 197.408, 243.977 197.630, 237 199.888 M 444.336 199.567 C 443.688 201.256, 444.133 206.294, 446.452 223.500 C 448.424 238.130, 448.467 272.326, 446.529 285.182 C 435.377 359.160, 385.394 417.816, 314.341 440.306 C 295.848 446.159, 274.107 449.881, 257.026 450.118 C 246.503 450.264, 242.500 451.061, 242.500 453.010 C 242.500 455.012, 249.133 456.562, 263.179 457.841 C 302.089 461.385, 349.558 445.521, 385 417.130 C 393.403 410.398, 409.679 394.296, 416.465 386 C 436.704 361.259, 450.850 330.195, 457.680 295.500 C 460.215 282.621, 460.231 247.201, 457.707 234.500 C 454.285 217.280, 448.020 198, 445.845 198 C 445.346 198, 444.667 198.705, 444.336 199.567 M 243 225.935 C 234.277 228.598, 225.601 236.282, 221.671 244.824 C 220.008 248.437, 219.517 251.432, 219.510 258 C 219.501 265.427, 219.870 267.229, 222.429 272.281 C 229.723 286.676, 245.105 294.701, 260.169 291.969 C 272.665 289.703, 282.032 282.836, 287.235 272.127 C 291.278 263.804, 291.514 255.697, 287.979 246.507 C 283.418 234.647, 264.311 219.876, 266.165 229.644 C 266.396 230.860, 267.549 231.614, 269.509 231.830 C 275.271 232.466, 280.895 240.210, 283.442 251.014 C 285.448 259.527, 285.362 264.611, 283.129 269.500 C 280.610 275.016, 275.663 279.547, 268.087 283.277 C 262.522 286.017, 260.604 286.439, 253.587 286.468 C 246.566 286.496, 244.728 286.109, 239.641 283.531 C 232.605 279.966, 227.723 274.548, 225.008 267.292 C 222.854 261.536, 222.402 254.439, 224.034 252 C 224.911 250.689, 225.208 250.721, 226.384 252.256 C 227.124 253.223, 228.007 256.036, 228.346 258.510 C 229.526 267.117, 235.709 276.742, 242.308 280.242 C 247.526 283.010, 259.403 283.221, 265.213 280.648 C 274.543 276.517, 280.035 268.501, 280.730 258 C 281.105 252.331, 280.798 250.803, 278.330 246.051 C 275.638 240.868, 270.704 235.963, 269.447 237.220 C 269.124 237.542, 269.891 239.762, 271.151 242.153 C 274.281 248.096, 274.404 258.776, 271.408 264.488 C 268.344 270.330, 261.862 273.409, 252.519 273.461 C 246.233 273.495, 244.822 273.147, 241.272 270.687 C 235.256 266.520, 231 257.981, 231 250.078 C 231 246.700, 231.627 242.435, 232.394 240.600 C 235.160 233.979, 246.208 228.313, 254.522 229.250 C 258.763 229.728, 260 228.976, 260 225.918 C 260 224.827, 246.586 224.840, 243 225.935 M 118.658 252.485 C 115.348 255.795, 115.326 280.921, 118.618 298.335 C 122.149 317.018, 131.350 339.254, 142.480 356.005 C 149.151 366.044, 167.538 384.352, 177.418 390.792 C 185.861 396.295, 196.114 400.947, 205.646 403.600 C 214.289 406.006, 233.790 406.541, 242.856 404.621 C 250.750 402.949, 257.164 400.235, 257.758 398.314 C 258.325 396.478, 254.128 394.232, 245.054 391.516 C 220.528 384.175, 195.727 368.821, 174.898 348.083 C 157.367 330.629, 147.454 314.552, 138.468 289 C 135.857 281.575, 132.721 273.475, 131.499 271 C 130.276 268.525, 128.512 264.163, 127.577 261.307 C 125.877 256.115, 122.613 251, 120.999 251 C 120.528 251, 119.475 251.668, 118.658 252.485 M 137 411.274 C 137 413.705, 154.526 427.720, 167.150 435.384 C 176.044 440.784, 180.639 442.105, 181.621 439.544 C 182.520 437.203, 181.106 436.056, 168.628 429.001 C 162.648 425.620, 154.037 420.455, 149.493 417.524 C 138.077 410.159, 137 409.621, 137 411.274" stroke="none" fill="black" fill-rule="evenodd"/>
</svg>
